<svg viewBox="0 0 140 47" fill="none" xmlns="http://www.w3.org/2000/svg">
<rect x="0.219727" y="0.445801" width="559" height="187" rx="93.5" fill="#FA1861"/>
<path d="M168.493 121.825C162.413 121.846 157.102 120.77 152.562 118.599C148.074 116.427 144.57 113.346 142.05 109.354C139.584 105.363 138.341 100.593 138.322 95.0468C138.303 89.5001 139.514 84.7227 141.954 80.7145C144.447 76.6527 147.93 73.5476 152.402 71.3992C156.928 69.1972 162.231 68.086 168.311 68.0655C174.445 68.0448 179.755 69.1203 184.242 71.2918C188.729 73.41 192.206 76.4917 194.673 80.5367C197.194 84.5282 198.463 89.2973 198.482 94.8439C198.5 100.391 197.263 105.168 194.77 109.177C192.33 113.185 188.874 116.29 184.401 118.492C179.929 120.693 174.626 121.805 168.493 121.825ZM168.466 113.825C172.519 113.812 176.09 113.106 179.178 111.709C182.267 110.312 184.687 108.224 186.437 105.445C188.241 102.612 189.136 99.0888 189.122 94.8755C189.108 90.7155 188.189 87.2519 186.367 84.4847C184.597 81.664 182.163 79.5655 179.065 78.1893C175.967 76.7597 172.392 76.0518 168.338 76.0655C164.338 76.079 160.767 76.811 157.626 78.2616C154.484 79.6589 152.011 81.7739 150.207 84.6066C148.403 87.3861 147.508 90.8558 147.522 95.0158C147.536 99.2291 148.455 102.746 150.278 105.567C152.1 108.334 154.587 110.405 157.739 111.781C160.89 113.157 164.466 113.839 168.466 113.825ZM263.583 102.384C263.063 106.386 261.662 109.831 259.378 112.719C257.094 115.553 254.035 117.75 250.2 119.31C246.419 120.816 241.994 121.577 236.928 121.594C232.554 121.609 228.526 121.036 224.842 119.875C221.211 118.714 218.032 117.018 215.305 114.787C212.63 112.503 210.541 109.71 209.036 106.408C207.585 103.053 206.852 99.2157 206.838 94.8958C206.823 90.5225 207.53 86.6801 208.959 83.3686C210.441 80.0569 212.511 77.2499 215.17 74.9476C217.882 72.5917 221.05 70.821 224.673 69.6355C228.349 68.4498 232.373 67.8495 236.747 67.8348C241.866 67.8175 246.322 68.5758 250.114 70.1097C253.959 71.6434 257.034 73.8464 259.337 76.7187C261.64 79.5909 263.038 83.0529 263.532 87.1046L254.732 87.1342C253.977 84.7368 252.797 82.7141 251.191 81.0661C249.585 79.3649 247.554 78.0651 245.098 77.1667C242.695 76.2681 239.92 75.8241 236.773 75.8347C232.827 75.848 229.283 76.6067 226.141 78.1106C222.999 79.5612 220.527 81.7029 218.723 84.5356C216.972 87.3149 216.104 90.7578 216.118 94.8645C216.131 98.9178 217.023 102.355 218.792 105.176C220.615 107.943 223.102 110.041 226.254 111.47C229.405 112.9 232.954 113.608 236.901 113.595C240.047 113.584 242.819 113.148 245.216 112.286C247.613 111.372 249.609 110.085 251.203 108.426C252.798 106.714 253.964 104.71 254.703 102.414L263.583 102.384ZM290.565 121.334C286.939 121.346 283.602 120.477 280.556 118.727C277.564 116.977 275.156 114.559 273.332 111.472C271.561 108.331 270.669 104.734 270.656 100.681C270.642 96.5207 271.536 92.891 273.339 89.7915C275.142 86.6388 277.587 84.1772 280.674 82.4068C283.761 80.6363 287.225 79.7447 291.065 79.7317C295.332 79.7173 298.721 80.6392 301.234 82.4974C303.747 84.3556 305.542 86.8563 306.62 89.9993C307.697 93.1424 308.242 96.6606 308.255 100.554C308.263 102.741 307.951 105.062 307.319 107.517C306.687 109.919 305.681 112.163 304.302 114.247C302.975 116.332 301.168 118.045 298.879 119.386C296.643 120.673 293.872 121.322 290.565 121.334ZM293.26 113.964C296.247 113.954 298.779 113.386 300.855 112.259C302.984 111.078 304.579 109.473 305.639 107.443C306.752 105.412 307.304 103.117 307.295 100.557C307.286 97.7304 306.718 95.3324 305.591 93.3628C304.464 91.3399 302.859 89.7987 300.775 88.739C298.692 87.626 296.157 87.0746 293.17 87.0846C288.903 87.099 285.601 88.3635 283.263 90.8781C280.924 93.3926 279.762 96.6499 279.776 100.65C279.784 103.263 280.352 105.581 281.479 107.604C282.659 109.627 284.264 111.195 286.295 112.308C288.325 113.421 290.647 113.973 293.26 113.964ZM307.228 80.5572L316.188 80.527L316.322 120.367L308.002 120.395C308.002 120.395 307.947 119.888 307.837 118.875C307.727 117.862 307.616 116.636 307.505 115.196C307.393 113.704 307.335 112.29 307.33 110.957L307.228 80.5572ZM325.949 80.4941L334.829 80.4642L334.963 120.304L326.083 120.334L325.949 80.4941ZM351.626 79.5275C353.919 79.5198 356.027 79.8327 357.949 80.4662C359.925 81.0995 361.608 82.0805 362.999 83.4092C364.443 84.6843 365.542 86.2806 366.295 88.1981C367.102 90.1154 367.509 92.3807 367.518 94.994L367.603 120.194L358.723 120.224L358.644 96.784C358.633 93.5306 357.825 91.1333 356.22 89.5921C354.668 87.9973 352.212 87.2056 348.852 87.2169C346.292 87.2255 343.947 87.7935 341.818 88.9206C339.741 89.9943 338.039 91.4134 336.712 93.1779C335.384 94.889 334.617 96.785 334.411 98.8657L334.317 94.546C334.577 92.5717 335.157 90.7031 336.058 88.9401C336.958 87.1237 338.153 85.5196 339.641 84.1279C341.13 82.6829 342.886 81.557 344.91 80.7502C346.934 79.9433 349.173 79.5358 351.626 79.5275ZM383.386 79.4204C385.732 79.4125 387.867 79.7253 389.789 80.3589C391.711 80.9924 393.368 81.9735 394.759 83.3021C396.203 84.5772 397.329 86.1735 398.135 88.0908C398.942 90.008 399.349 92.2734 399.358 94.8867L399.443 120.087L390.483 120.117L390.404 96.6769C390.393 93.4236 389.585 91.0263 387.98 89.485C386.428 87.8902 383.972 87.0985 380.612 87.1098C378.052 87.1185 375.707 87.6864 373.577 88.8136C371.501 89.8872 369.799 91.3063 368.472 93.0708C367.197 94.7818 366.457 96.6776 366.251 98.7583L366.076 94.2789C366.336 92.358 366.943 90.5159 367.897 88.7527C368.851 86.9361 370.072 85.332 371.561 83.9403C373.05 82.5486 374.779 81.4495 376.75 80.6428C378.774 79.836 380.986 79.4285 383.386 79.4204ZM409.82 64.2112L418.7 64.1813L418.888 120.021L410.008 120.051L409.82 64.2112Z" fill="#6A2625"/>
</svg>
