<svg viewBox="0 0 110.01 97.28" fill="none" xmlns="http://www.w3.org/2000/svg">
<path d="M188 256C188 311.781 162.033 357 130 357C97.9675 357 72 311.781 72 256C72 200.219 97.9675 155 130 155C162.033 155 188 200.219 188 256Z" fill="#EBD234"/>
<path d="M269 256C269 311.781 243.033 357 211 357C178.967 357 153 311.781 153 256C153 200.219 178.967 155 211 155C243.033 155 269 200.219 269 256Z" fill="#EBD234"/>
<path d="M347 256C347 311.781 321.033 357 289 357C256.967 357 231 311.781 231 256C231 200.219 256.967 155 289 155C321.033 155 347 200.219 347 256Z" fill="#EBD234"/>
<path d="M427 256C427 311.781 401.033 357 369 357C336.967 357 311 311.781 311 256C311 200.219 336.967 155 369 155C401.033 155 427 200.219 427 256Z" fill="#EBD234"/>
<path d="M507 256C507 311.781 481.033 357 449 357C416.967 357 391 311.781 391 256C391 200.219 416.967 155 449 155C481.033 155 507 200.219 507 256Z" fill="#EBD234"/>
<path d="M173.24 282V230.16H203.88C207.72 230.16 211.053 230.72 213.88 231.84C216.707 232.907 218.893 234.587 220.44 236.88C221.987 239.12 222.76 242 222.76 245.52C222.76 247.867 222.36 249.893 221.56 251.6C220.76 253.253 219.64 254.613 218.2 255.68C216.76 256.747 215.08 257.573 213.16 258.16C211.293 258.747 209.293 259.12 207.16 259.28L206.36 258.72C209.773 258.773 212.6 259.093 214.84 259.68C217.08 260.213 218.787 261.253 219.96 262.8C221.133 264.293 221.72 266.507 221.72 269.44V282H212.68V269.92C212.68 267.893 212.307 266.32 211.56 265.2C210.867 264.027 209.64 263.227 207.88 262.8C206.173 262.32 203.72 262.08 200.52 262.08H182.36V282H173.24ZM182.36 254.64H203.88C207.08 254.64 209.507 253.84 211.16 252.24C212.813 250.64 213.64 248.533 213.64 245.92C213.64 243.413 212.813 241.493 211.16 240.16C209.507 238.773 207.08 238.08 203.88 238.08H182.36V254.64ZM265.709 268.88H274.269C273.842 271.6 272.775 274.027 271.069 276.16C269.415 278.24 267.149 279.893 264.269 281.12C261.389 282.293 257.949 282.88 253.949 282.88C249.415 282.88 245.362 282.053 241.789 280.4C238.215 278.693 235.415 276.293 233.389 273.2C231.362 270.107 230.349 266.427 230.349 262.16C230.349 257.947 231.335 254.267 233.309 251.12C235.282 247.973 238.002 245.547 241.469 243.84C244.989 242.133 249.042 241.28 253.629 241.28C258.375 241.28 262.322 242.133 265.469 243.84C268.669 245.493 271.042 248 272.589 251.36C274.135 254.667 274.775 258.853 274.509 263.92H239.389C239.655 266.16 240.375 268.187 241.549 270C242.775 271.76 244.429 273.147 246.509 274.16C248.589 275.12 251.015 275.6 253.789 275.6C256.882 275.6 259.469 274.987 261.549 273.76C263.682 272.533 265.069 270.907 265.709 268.88ZM253.389 248.48C249.762 248.48 246.775 249.387 244.429 251.2C242.082 252.96 240.562 255.227 239.869 258H265.549C265.335 255.013 264.135 252.693 261.949 251.04C259.762 249.333 256.909 248.48 253.389 248.48ZM300.189 282.88C296.562 282.88 293.229 282 290.189 280.24C287.202 278.48 284.802 276.053 282.989 272.96C281.229 269.813 280.349 266.213 280.349 262.16C280.349 258 281.255 254.373 283.069 251.28C284.882 248.133 287.335 245.68 290.429 243.92C293.522 242.16 296.989 241.28 300.829 241.28C305.095 241.28 308.482 242.213 310.989 244.08C313.495 245.947 315.282 248.453 316.349 251.6C317.415 254.747 317.949 258.267 317.949 262.16C317.949 264.347 317.629 266.667 316.989 269.12C316.349 271.52 315.335 273.76 313.949 275.84C312.615 277.92 310.802 279.627 308.509 280.96C306.269 282.24 303.495 282.88 300.189 282.88ZM302.909 275.52C305.895 275.52 308.429 274.96 310.509 273.84C312.642 272.667 314.242 271.067 315.309 269.04C316.429 267.013 316.989 264.72 316.989 262.16C316.989 259.333 316.429 256.933 315.309 254.96C314.189 252.933 312.589 251.387 310.509 250.32C308.429 249.2 305.895 248.64 302.909 248.64C298.642 248.64 295.335 249.893 292.989 252.4C290.642 254.907 289.469 258.16 289.469 262.16C289.469 264.773 290.029 267.093 291.149 269.12C292.322 271.147 293.922 272.72 295.949 273.84C297.975 274.96 300.295 275.52 302.909 275.52ZM316.989 242.16H325.949V282H317.629C317.629 282 317.575 281.493 317.469 280.48C317.362 279.467 317.255 278.24 317.149 276.8C317.042 275.307 316.989 273.893 316.989 272.56V242.16ZM378.59 266.56C378.27 269.973 377.177 272.907 375.31 275.36C373.443 277.813 370.937 279.68 367.79 280.96C364.697 282.24 361.123 282.88 357.07 282.88C352.697 282.88 348.723 282.08 345.15 280.48C341.63 278.88 338.83 276.533 336.75 273.44C334.67 270.347 333.63 266.587 333.63 262.16C333.63 257.733 334.67 253.973 336.75 250.88C338.83 247.787 341.63 245.413 345.15 243.76C348.723 242.107 352.697 241.28 357.07 241.28C361.123 241.28 364.697 241.947 367.79 243.28C370.883 244.56 373.363 246.4 375.23 248.8C377.097 251.2 378.19 254.107 378.51 257.52H370.35C369.443 254.693 367.79 252.507 365.39 250.96C363.043 249.36 360.27 248.56 357.07 248.56C354.457 248.56 352.057 249.093 349.87 250.16C347.683 251.173 345.923 252.693 344.59 254.72C343.31 256.693 342.67 259.173 342.67 262.16C342.67 265.093 343.31 267.573 344.59 269.6C345.923 271.627 347.683 273.147 349.87 274.16C352.057 275.12 354.457 275.6 357.07 275.6C360.59 275.6 363.47 274.827 365.71 273.28C368.003 271.68 369.577 269.44 370.43 266.56H378.59ZM383.613 242.16H411.773V249.44H383.613V242.16ZM393.213 231.44H402.173V282H393.213V231.44Z" fill="#6A2625"/>
</svg>
