<svg viewBox="0 0 110.01 97.28" fill="none" xmlns="http://www.w3.org/2000/svg">
<path d="M188 256C188 311.781 162.033 357 130 357C97.9675 357 72 311.781 72 256C72 200.219 97.9675 155 130 155C162.033 155 188 200.219 188 256Z" fill="#FF0000"/>
<path d="M269 256C269 311.781 243.033 357 211 357C178.967 357 153 311.781 153 256C153 200.219 178.967 155 211 155C243.033 155 269 200.219 269 256Z" fill="#FF0000"/>
<path d="M347 256C347 311.781 321.033 357 289 357C256.967 357 231 311.781 231 256C231 200.219 256.967 155 289 155C321.033 155 347 200.219 347 256Z" fill="#FF0000"/>
<path d="M427 256C427 311.781 401.033 357 369 357C336.967 357 311 311.781 311 256C311 200.219 336.967 155 369 155C401.033 155 427 200.219 427 256Z" fill="#FF0000"/>
<path d="M507 256C507 311.781 481.033 357 449 357C416.967 357 391 311.781 391 256C391 200.219 416.967 155 449 155C481.033 155 507 200.219 507 256Z" fill="#FF0000"/>
<path d="M173.24 282V230.16H203.88C207.72 230.16 211.053 230.72 213.88 231.84C216.707 232.907 218.893 234.587 220.44 236.88C221.987 239.12 222.76 242 222.76 245.52C222.76 247.867 222.36 249.893 221.56 251.6C220.76 253.253 219.64 254.613 218.2 255.68C216.76 256.747 215.08 257.573 213.16 258.16C211.293 258.747 209.293 259.12 207.16 259.28L206.36 258.72C209.773 258.773 212.6 259.093 214.84 259.68C217.08 260.213 218.787 261.253 219.96 262.8C221.133 264.293 221.72 266.507 221.72 269.44V282H212.68V269.92C212.68 267.893 212.307 266.32 211.56 265.2C210.867 264.027 209.64 263.227 207.88 262.8C206.173 262.32 203.72 262.08 200.52 262.08H182.36V282H173.24ZM182.36 254.64H203.88C207.08 254.64 209.507 253.84 211.16 252.24C212.813 250.64 213.64 248.533 213.64 245.92C213.64 243.413 212.813 241.493 211.16 240.16C209.507 238.773 207.08 238.08 203.88 238.08H182.36V254.64ZM265.709 268.88H274.269C273.842 271.6 272.775 274.027 271.069 276.16C269.415 278.24 267.149 279.893 264.269 281.12C261.389 282.293 257.949 282.88 253.949 282.88C249.415 282.88 245.362 282.053 241.789 280.4C238.215 278.693 235.415 276.293 233.389 273.2C231.362 270.107 230.349 266.427 230.349 262.16C230.349 257.947 231.335 254.267 233.309 251.12C235.282 247.973 238.002 245.547 241.469 243.84C244.989 242.133 249.042 241.28 253.629 241.28C258.375 241.28 262.322 242.133 265.469 243.84C268.669 245.493 271.042 248 272.589 251.36C274.135 254.667 274.775 258.853 274.509 263.92H239.389C239.655 266.16 240.375 268.187 241.549 270C242.775 271.76 244.429 273.147 246.509 274.16C248.589 275.12 251.015 275.6 253.789 275.6C256.882 275.6 259.469 274.987 261.549 273.76C263.682 272.533 265.069 270.907 265.709 268.88ZM253.389 248.48C249.762 248.48 246.775 249.387 244.429 251.2C242.082 252.96 240.562 255.227 239.869 258H265.549C265.335 255.013 264.135 252.693 261.949 251.04C259.762 249.333 256.909 248.48 253.389 248.48ZM300.189 282.88C296.509 282.88 293.149 282 290.109 280.24C287.122 278.48 284.749 276.053 282.989 272.96C281.229 269.813 280.349 266.213 280.349 262.16C280.349 258 281.202 254.373 282.909 251.28C284.669 248.133 287.015 245.68 289.949 243.92C292.935 242.16 296.349 241.28 300.189 241.28C303.549 241.28 306.375 241.84 308.669 242.96C310.962 244.027 312.775 245.52 314.109 247.44C315.442 249.307 316.402 251.493 316.989 254C317.629 256.507 317.949 259.227 317.949 262.16C317.949 264.347 317.629 266.667 316.989 269.12C316.349 271.52 315.335 273.76 313.949 275.84C312.615 277.92 310.802 279.627 308.509 280.96C306.269 282.24 303.495 282.88 300.189 282.88ZM302.909 275.52C305.895 275.52 308.429 274.96 310.509 273.84C312.642 272.667 314.242 271.067 315.309 269.04C316.429 267.013 316.989 264.72 316.989 262.16C316.989 259.333 316.429 256.933 315.309 254.96C314.189 252.933 312.589 251.36 310.509 250.24C308.429 249.12 305.895 248.56 302.909 248.56C298.642 248.56 295.335 249.84 292.989 252.4C290.642 254.907 289.469 258.16 289.469 262.16C289.469 264.773 290.029 267.093 291.149 269.12C292.322 271.147 293.922 272.72 295.949 273.84C297.975 274.96 300.295 275.52 302.909 275.52ZM316.989 226.16H325.949V282H317.629C317.522 280.773 317.389 279.253 317.229 277.44C317.069 275.627 316.989 274 316.989 272.56V226.16ZM378.792 282H369.912V242.16H378.792V282ZM370.392 263.04L370.472 265.6C370.366 266.293 370.126 267.333 369.752 268.72C369.432 270.107 368.872 271.627 368.072 273.28C367.326 274.88 366.312 276.427 365.032 277.92C363.806 279.36 362.259 280.56 360.392 281.52C358.526 282.427 356.259 282.88 353.592 282.88C351.672 282.88 349.726 282.613 347.752 282.08C345.832 281.6 344.072 280.773 342.472 279.6C340.926 278.427 339.672 276.827 338.712 274.8C337.752 272.773 337.272 270.213 337.272 267.12V242.16H346.152V265.44C346.152 267.947 346.552 269.92 347.352 271.36C348.206 272.747 349.379 273.733 350.872 274.32C352.366 274.907 354.099 275.2 356.072 275.2C358.899 275.2 361.299 274.56 363.272 273.28C365.246 272 366.819 270.427 367.992 268.56C369.219 266.64 370.019 264.8 370.392 263.04ZM429.081 242.16L410.361 264.16L396.281 282H385.401L405.081 258.8L418.281 242.16H429.081ZM385.401 242.16H396.361L410.441 258.8L430.121 282H419.241L404.681 264.32L385.401 242.16Z" fill="#6A2625"/>
</svg>
