<svg viewBox="0 0 140 47" fill="none" xmlns="http://www.w3.org/2000/svg">
<rect x="0.219727" y="0.445801" width="559" height="187" rx="93.5" fill="#FA1861"/>
<path d="M62.5147 68.6284L112.274 68.4606L112.301 76.3006L62.5411 76.4684L62.5147 68.6284ZM82.9378 75.4396L91.9777 75.4091L92.1293 120.369L83.0894 120.399L82.9378 75.4396ZM110.6 80.4663L120.12 80.4343L136.329 118.62L128.654 120.246L110.6 80.4663ZM155 80.3166L129.588 136.243L120.228 136.274L131.114 114.397L145.48 80.3487L155 80.3166ZM187.124 120.929C183.871 120.94 181.095 120.309 178.798 119.037C176.554 117.764 174.735 116.09 173.341 114.015C172 111.886 171.006 109.623 170.358 107.225C169.71 104.774 169.382 102.455 169.374 100.268C169.365 97.335 169.649 94.614 170.227 92.1054C170.859 89.5966 171.838 87.4066 173.165 85.5354C174.545 83.6108 176.353 82.1113 178.59 81.0371C180.879 79.9094 183.677 79.34 186.984 79.3288C190.717 79.3162 194.08 80.2116 197.073 82.0148C200.066 83.7647 202.447 86.21 204.218 89.3508C205.988 92.4381 206.88 96.0352 206.894 100.142C206.908 104.248 206.014 107.878 204.211 111.031C202.461 114.13 200.096 116.565 197.116 118.335C194.135 120.052 190.804 120.916 187.124 120.929ZM184.459 113.578C187.126 113.569 189.471 113.001 191.494 111.874C193.517 110.747 195.085 109.168 196.198 107.138C197.311 105.107 197.863 102.786 197.854 100.172C197.841 96.1723 196.657 92.9229 194.301 90.4242C191.946 87.8721 188.635 86.6033 184.369 86.6177C181.702 86.6267 179.304 87.1947 177.174 88.3219C175.045 89.4491 173.37 91.0281 172.15 93.0589C170.93 95.0364 170.325 97.4384 170.334 100.265C170.343 102.825 170.911 105.116 172.038 107.139C173.164 109.162 174.77 110.757 176.854 111.923C178.938 113.036 181.473 113.588 184.459 113.578ZM161.387 80.2951L169.867 80.2665L170.3 90.0251L170.455 136.105L161.575 136.135L161.387 80.2951ZM248.116 106.723L256.676 106.694C256.259 109.415 255.2 111.846 253.501 113.985C251.854 116.07 249.593 117.731 246.717 118.968C243.841 120.151 240.403 120.749 236.403 120.762C231.87 120.778 227.814 119.965 224.235 118.323C220.656 116.629 217.848 114.238 215.811 111.152C213.774 108.065 212.748 104.389 212.734 100.122C212.719 95.9088 213.694 92.2255 215.656 89.0722C217.619 85.9189 220.331 83.4831 223.792 81.7647C227.306 80.0462 231.356 79.1792 235.943 79.1637C240.69 79.1477 244.639 79.9878 247.792 81.6838C250.997 83.3263 253.379 85.825 254.937 89.1798C256.495 92.4812 257.149 96.6657 256.899 101.733L221.779 101.852C222.054 104.091 222.781 106.115 223.96 107.924C225.193 109.68 226.851 111.061 228.934 112.068C231.017 113.021 233.445 113.492 236.219 113.483C239.312 113.473 241.897 112.851 243.973 111.617C246.102 110.383 247.483 108.752 248.116 106.723ZM235.727 86.3645C232.101 86.3767 229.117 87.2935 226.777 89.1147C224.436 90.8826 222.924 93.1544 222.24 95.93L247.919 95.8435C247.696 92.8575 246.488 90.5416 244.296 88.8956C242.104 87.1963 239.247 86.3526 235.727 86.3645ZM262.662 102.594L271.542 102.564C271.762 104.536 272.542 106.32 273.88 107.916C275.272 109.458 277.09 110.679 279.333 111.578C281.629 112.423 284.244 112.841 287.177 112.831C289.79 112.822 291.949 112.495 293.654 111.849C295.358 111.204 296.608 110.319 297.405 109.197C298.254 108.02 298.676 106.659 298.671 105.112C298.666 103.566 298.155 102.367 297.139 101.518C296.176 100.614 294.68 99.8725 292.651 99.2927C290.622 98.6595 288.034 98.0549 284.885 97.4788C282.27 97.0076 279.735 96.3762 277.279 95.5845C274.823 94.7927 272.606 93.7869 270.628 92.5669C268.704 91.3467 267.179 89.8585 266.053 88.1023C264.927 86.2927 264.36 84.1613 264.352 81.708C264.342 78.9347 265.107 76.4254 266.646 74.1802C268.239 71.9348 270.58 70.1669 273.669 68.8765C276.758 67.5861 280.515 66.9334 284.942 66.9185C291.715 66.8956 296.894 68.4515 300.478 71.5861C304.062 74.6674 305.809 78.8748 305.72 84.2085L297.001 84.2379C296.829 80.8785 295.594 78.4559 293.296 76.9704C290.998 75.4848 288.088 74.7479 284.569 74.7598C281.422 74.7704 278.784 75.3393 276.654 76.4665C274.525 77.5936 273.464 79.4106 273.473 81.9172C273.476 82.9839 273.719 83.9164 274.202 84.7148C274.738 85.4596 275.594 86.1501 276.769 86.7861C277.944 87.3688 279.546 87.9501 281.575 88.5299C283.657 89.0563 286.192 89.6344 289.181 90.2643C291.742 90.6823 294.144 91.2609 296.387 92C298.629 92.7391 300.579 93.6659 302.236 94.7803C303.947 95.8946 305.285 97.33 306.251 99.0868C307.217 100.844 307.704 103.002 307.712 105.562C307.722 108.495 306.985 111.111 305.499 113.409C304.013 115.654 301.726 117.449 298.637 118.793C295.601 120.083 291.657 120.736 286.804 120.752C283.124 120.765 279.896 120.349 277.119 119.505C274.396 118.608 272.072 117.469 270.148 116.089C268.223 114.655 266.671 113.114 265.492 111.464C264.367 109.815 263.561 108.217 263.076 106.672C262.644 105.074 262.506 103.714 262.662 102.594ZM358.723 104.03C358.415 107.444 357.331 110.381 355.473 112.841C353.615 115.301 351.114 117.176 347.972 118.466C344.883 119.757 341.312 120.409 337.258 120.422C332.885 120.437 328.909 119.651 325.33 118.063C321.805 116.474 318.997 114.137 316.907 111.051C314.816 107.965 313.764 104.208 313.749 99.7815C313.734 95.3549 314.761 91.5914 316.831 88.4911C318.9 85.3907 321.692 83.008 325.207 81.3428C328.774 79.6774 332.745 78.8374 337.118 78.8226C341.171 78.8089 344.747 79.4636 347.845 80.7865C350.942 82.056 353.429 83.8877 355.303 86.2813C357.178 88.675 358.281 91.578 358.613 94.9902L350.453 95.0177C349.537 92.1942 347.876 90.0131 345.471 88.4745C343.119 86.8824 340.343 86.0918 337.143 86.1026C334.529 86.1114 332.131 86.6528 329.948 87.7268C327.765 88.7475 326.01 90.2735 324.684 92.3046C323.41 94.2823 322.779 96.7644 322.789 99.751C322.798 102.684 323.447 105.162 324.734 107.185C326.074 109.207 327.839 110.721 330.029 111.727C332.219 112.679 334.621 113.151 337.234 113.142C340.754 113.131 343.631 112.348 345.866 110.793C348.154 109.186 349.72 106.94 350.563 104.057L358.723 104.03ZM366.464 79.6037L375.344 79.5737L375.478 119.414L366.598 119.443L366.464 79.6037ZM389.77 87.1251C386.89 87.1349 384.412 87.7565 382.336 88.9902C380.313 90.2237 378.692 91.7225 377.471 93.4866C376.25 95.2508 375.403 96.9603 374.928 98.6152L374.833 94.1355C374.884 93.5487 375.068 92.6681 375.384 91.4937C375.7 90.2659 376.176 88.931 376.811 87.4888C377.499 86.0465 378.401 84.6568 379.517 83.3197C380.685 81.9291 382.095 80.8043 383.745 79.9454C385.449 79.0863 387.448 78.6529 389.741 78.6452L389.77 87.1251ZM406.807 62.5876L406.836 71.1475L396.196 71.1834L396.167 62.6234L406.807 62.5876ZM397.024 79.5006L405.984 79.4704L406.118 119.31L397.158 119.34L397.024 79.5006ZM442.357 120.068C439.104 120.079 436.328 119.448 434.031 118.176C431.786 116.904 429.967 115.23 428.574 113.154C427.233 111.026 426.239 108.762 425.591 106.364C424.943 103.913 424.615 101.594 424.607 99.4078C424.598 96.4744 424.882 93.7535 425.46 91.2448C426.091 88.736 427.071 86.546 428.398 84.6749C429.778 82.7502 431.586 81.2508 433.823 80.1766C436.112 79.0488 438.91 78.4794 442.217 78.4683C445.95 78.4557 449.313 79.351 452.306 81.1543C455.299 82.9042 457.68 85.3495 459.451 88.4902C461.221 91.5776 462.113 95.1746 462.127 99.2813C462.141 103.388 461.247 107.018 459.444 110.17C457.694 113.27 455.329 115.704 452.348 117.474C449.368 119.191 446.037 120.056 442.357 120.068ZM439.692 112.717C442.359 112.708 444.704 112.14 446.727 111.013C448.75 109.886 450.318 108.308 451.431 106.277C452.544 104.247 453.096 101.925 453.087 99.3117C453.074 95.3118 451.889 92.0624 449.534 89.5637C447.179 87.0116 443.868 85.7427 439.601 85.7571C436.935 85.7661 434.537 86.3342 432.407 87.4614C430.278 88.5886 428.603 90.1676 427.383 92.1984C426.163 94.1758 425.558 96.5779 425.567 99.4045C425.576 101.965 426.144 104.256 427.271 106.279C428.397 108.302 430.003 109.896 432.087 111.063C434.171 112.176 436.706 112.727 439.692 112.717ZM416.62 79.4346L425.1 79.406L425.533 89.1646L425.688 135.244L416.808 135.274L416.62 79.4346ZM467.179 79.2641L495.339 79.1692L495.363 86.4491L467.204 86.5441L467.179 79.2641ZM476.743 68.5118L485.703 68.4816L485.873 119.041L476.913 119.072L476.743 68.5118Z" fill="#6A2625"/>
</svg>
